<svg width="45" height="31" viewBox="0 0 45 31" fill="none" xmlns="http://www.w3.org/2000/svg">
<path d="M42.266 3.1776C43.1843 3.17697 44.1003 3.2616 45 3.43021C41.7645 1.04129 37.6826 -0.172684 33.5327 0.0198396C29.3829 0.212363 25.4556 1.79791 22.5 4.47406C19.5444 1.79791 15.6171 0.212363 11.4673 0.0198396C7.31745 -0.172684 3.2355 1.04129 0 3.43021C1.95518 3.06192 3.97509 3.09481 5.91475 3.52654C7.85441 3.95827 9.66572 4.77812 11.2187 5.92725C12.7716 7.07638 14.0277 8.52628 14.8967 10.1729C15.7657 11.8195 16.2261 13.622 16.2449 15.451C16.2637 17.2799 15.8404 19.09 15.0053 20.7513C14.1703 22.4127 12.9443 23.884 11.4152 25.0597C9.88617 26.2354 8.09203 27.0864 6.16158 27.5515C4.23113 28.0166 2.21225 28.0843 0.24985 27.7498C3.49053 30.0522 7.53365 31.1973 11.6269 30.9721C15.7201 30.747 19.5847 29.1668 22.5015 26.5257C25.4183 29.1668 29.2829 30.747 33.3761 30.9721C37.4694 31.1973 41.5125 30.0522 44.7532 27.7498C42.9044 28.0659 41.004 28.0251 39.1734 27.63C37.3427 27.235 35.6222 26.4944 34.1216 25.4555C32.621 24.4167 31.3734 23.1024 30.4585 21.5968C29.5436 20.0911 28.9815 18.4271 28.8082 16.7111C28.6348 14.9951 28.8539 13.2648 29.4516 11.6308C30.0493 9.99682 31.0124 8.49504 32.2793 7.22141C33.5463 5.94779 35.0892 4.93032 36.8096 4.23403C38.5299 3.53774 40.3899 3.17793 42.2706 3.1776H42.266Z" fill="#FF2D95"/>
</svg>
