<svg width="31" height="31" viewBox="0 0 31 31" fill="none" xmlns="http://www.w3.org/2000/svg">
<path d="M28.5033 0.394172L16.7122 11.1673C16.7266 10.3824 16.7464 9.84514 16.7716 9.73102C16.6505 9.7004 16.1356 9.22997 15.5011 8.57026C14.8667 9.22997 14.3518 9.7004 14.2307 9.73102C14.2558 9.84445 14.2756 10.3824 14.2901 11.1673L2.49898 0.394172C1.57738 -0.447863 0 0.14852 0 1.3392V7.31765C-3.82863e-08 8.39235 0.231717 9.45652 0.681916 10.4494C1.13211 11.4422 1.79198 12.3444 2.62381 13.1042C3.45565 13.864 4.44317 14.4667 5.52996 14.8778C6.61676 15.2888 7.78154 15.5003 8.95779 15.5C7.78154 15.4997 6.61676 15.7112 5.52996 16.1222C4.44317 16.5333 3.45565 17.136 2.62381 17.8958C1.79198 18.6556 1.13211 19.5578 0.681916 20.5506C0.231717 21.5435 -3.82863e-08 22.6077 0 23.6824V29.6608C0 30.8515 1.5751 31.4472 2.4967 30.6058L14.2901 19.8327C14.2756 20.6176 14.2558 21.1549 14.2307 21.269C14.3518 21.2996 14.8659 21.77 15.5011 22.4297C16.1356 21.77 16.6505 21.2996 16.7716 21.269C16.7464 21.1556 16.7266 20.6176 16.7122 19.8327L28.5033 30.6058C29.4249 31.4479 31 30.8515 31 29.6608V23.6824C31 21.5123 30.0565 19.431 28.377 17.8966C26.6975 16.3621 24.4196 15.5 22.0445 15.5C24.4195 15.4998 26.6972 14.6377 28.3765 13.1032C30.0558 11.5687 30.9992 9.48762 30.9992 7.31765V1.3392C30.9992 0.14852 29.4241 -0.447167 28.5033 0.394172Z" fill="#870EFF"/>
</svg>
