<svg width="34" height="31" viewBox="0 0 34 31" fill="none" xmlns="http://www.w3.org/2000/svg">
<path d="M22.8406 15.5009C43.606 2.10422 31.6944 -8.75672 17 10.1744C2.30639 -8.75812 -9.60602 2.10211 11.1594 15.4995C-9.60602 28.8961 2.30562 39.757 17 20.8245C31.6944 39.7584 43.606 28.8982 22.8406 15.5009ZM17 18.9886C16.2434 18.9886 15.5038 18.7841 14.8747 18.4008C14.2456 18.0176 13.7553 17.4729 13.4658 16.8356C13.1763 16.1983 13.1005 15.497 13.2481 14.8204C13.3957 14.1439 13.76 13.5224 14.295 13.0347C14.83 12.5469 15.5116 12.2147 16.2537 12.0801C16.9958 11.9456 17.7649 12.0146 18.4639 12.2786C19.1629 12.5426 19.7604 12.9896 20.1807 13.5632C20.601 14.1367 20.8254 14.8111 20.8254 15.5009C20.8255 15.9589 20.7266 16.4125 20.5344 16.8357C20.3422 17.2589 20.0604 17.6434 19.7052 17.9673C19.35 18.2912 18.9282 18.5481 18.464 18.7233C17.9999 18.8986 17.5024 18.9887 17 18.9886Z" fill="#489325"/>
</svg>
